<svg width="446" height="451" viewBox="0 0 446 451" fill="none" xmlns="http://www.w3.org/2000/svg">
<path d="M85.1796 306.548C55.0089 276.377 39.9235 261.292 34.5404 243.794C30.1962 229.673 30.1962 214.572 34.5404 200.452C39.9235 182.954 55.0088 167.868 85.1796 137.697L138.452 84.4252C168.623 54.2545 183.708 39.1691 201.206 33.786C215.327 29.4418 230.427 29.4418 244.548 33.786C262.046 39.1691 277.131 54.2545 307.302 84.4252L360.574 137.697C390.745 167.868 405.831 182.954 411.214 200.452C415.558 214.572 415.558 229.673 411.214 243.794C405.831 261.292 390.745 276.377 360.574 306.548L307.302 359.82C277.131 389.991 262.046 405.076 244.548 410.459C230.427 414.803 215.327 414.803 201.206 410.459C183.708 405.076 168.623 389.991 138.452 359.82L85.1796 306.548Z" fill="#7E6D61"/>
<path d="M87.5483 140.066L140.82 86.7938C155.946 71.668 167.146 60.4733 176.742 52.37C186.308 44.2934 194.053 39.4914 202.191 36.9877C215.67 32.8412 230.084 32.8412 243.563 36.9877C251.701 39.4914 259.446 44.2934 269.012 52.37C278.608 60.4732 289.807 71.6688 304.933 86.7945L358.205 140.066C373.331 155.192 384.526 166.391 392.63 175.988C400.706 185.553 405.508 193.299 408.012 201.437C412.158 214.916 412.158 229.33 408.012 242.808C405.508 250.947 400.706 258.692 392.63 268.257C384.526 277.854 373.331 289.053 358.205 304.179L304.933 357.451C289.807 372.576 278.609 383.772 269.012 391.875C259.446 399.952 251.701 404.754 243.563 407.258C230.084 411.404 215.67 411.404 202.191 407.258C194.053 404.754 186.308 399.952 176.743 391.875C167.146 383.772 155.946 372.577 140.82 357.451L87.5483 304.179C72.4225 289.054 61.2277 277.854 53.1245 268.257C45.0479 258.692 40.2458 250.947 37.7422 242.808C33.5956 229.33 33.5956 214.916 37.7422 201.437C40.2458 193.299 45.0479 185.553 53.1245 175.988C61.2277 166.391 72.4225 155.192 87.5483 140.066Z" stroke="url(#paint0_linear_392_545)" stroke-opacity="0.28" stroke-width="6.70007"/>
<g filter="url(#filter0_ddi_392_545)">
<g clip-path="url(#paint1_diamond_392_545_clip_path)" data-figma-skip-parse="true"><g transform="matrix(0.136782 -0.26242 0.26242 0.136782 168.214 336.224)"><rect x="0" y="0" width="837.355" height="424.48" fill="url(#paint1_diamond_392_545)" opacity="1" shape-rendering="crispEdges"/><rect x="0" y="0" width="837.355" height="424.48" transform="scale(1 -1)" fill="url(#paint1_diamond_392_545)" opacity="1" shape-rendering="crispEdges"/><rect x="0" y="0" width="837.355" height="424.48" transform="scale(-1 1)" fill="url(#paint1_diamond_392_545)" opacity="1" shape-rendering="crispEdges"/><rect x="0" y="0" width="837.355" height="424.48" transform="scale(-1)" fill="url(#paint1_diamond_392_545)" opacity="1" shape-rendering="crispEdges"/></g></g><path d="M141.558 268.173C125.101 251.716 116.873 243.488 113.937 233.943C111.567 226.241 111.567 218.004 113.937 210.302C116.873 200.758 125.101 192.529 141.558 176.072L176.827 140.803C193.284 124.347 201.512 116.118 211.057 113.182C218.759 110.813 226.995 110.813 234.698 113.182C244.242 116.118 252.47 124.347 268.927 140.803L304.196 176.072C320.653 192.529 328.881 200.758 331.818 210.302C334.187 218.004 334.187 226.241 331.818 233.943C328.881 243.488 320.653 251.716 304.196 268.173L268.927 303.442C252.47 319.899 244.242 328.127 234.698 331.063C226.995 333.433 218.759 333.433 211.057 331.063C201.512 328.127 193.284 319.899 176.827 303.442L141.558 268.173Z" data-figma-gradient-fill="{&#34;type&#34;:&#34;GRADIENT_DIAMOND&#34;,&#34;stops&#34;:[{&#34;color&#34;:{&#34;r&#34;:0.63921570777893066,&#34;g&#34;:0.28627452254295349,&#34;b&#34;:0.93725490570068359,&#34;a&#34;:1.0},&#34;position&#34;:0.4218750},{&#34;color&#34;:{&#34;r&#34;:1.0,&#34;g&#34;:0.39550781250,&#34;b&#34;:0.90328133106231689,&#34;a&#34;:1.0},&#34;position&#34;:1.0}],&#34;stopsVar&#34;:[],&#34;transform&#34;:{&#34;m00&#34;:273.56457519531250,&#34;m01&#34;:524.83966064453125,&#34;m02&#34;:-230.98765563964844,&#34;m10&#34;:-524.83966064453125,&#34;m11&#34;:273.56457519531250,&#34;m12&#34;:461.861816406250},&#34;opacity&#34;:1.0,&#34;blendMode&#34;:&#34;NORMAL&#34;,&#34;visible&#34;:true}"/>
<g clip-path="url(#paint2_diamond_392_545_clip_path)" data-figma-skip-parse="true"><g transform="matrix(0.0453753 -0.133738 0.0708024 0.0240222 164.367 212.172)"><rect x="0" y="0" width="983.992" height="2517.09" fill="url(#paint2_diamond_392_545)" opacity="1" shape-rendering="crispEdges"/><rect x="0" y="0" width="983.992" height="2517.09" transform="scale(1 -1)" fill="url(#paint2_diamond_392_545)" opacity="1" shape-rendering="crispEdges"/><rect x="0" y="0" width="983.992" height="2517.09" transform="scale(-1 1)" fill="url(#paint2_diamond_392_545)" opacity="1" shape-rendering="crispEdges"/><rect x="0" y="0" width="983.992" height="2517.09" transform="scale(-1)" fill="url(#paint2_diamond_392_545)" opacity="1" shape-rendering="crispEdges"/></g></g><path d="M141.558 268.173C125.101 251.716 116.873 243.488 113.937 233.943C111.567 226.241 111.567 218.004 113.937 210.302C116.873 200.758 125.101 192.529 141.558 176.072L176.827 140.803C193.284 124.347 201.512 116.118 211.057 113.182C218.759 110.813 226.995 110.813 234.698 113.182C244.242 116.118 252.47 124.347 268.927 140.803L304.196 176.072C320.653 192.529 328.881 200.758 331.818 210.302C334.187 218.004 334.187 226.241 331.818 233.943C328.881 243.488 320.653 251.716 304.196 268.173L268.927 303.442C252.47 319.899 244.242 328.127 234.698 331.063C226.995 333.433 218.759 333.433 211.057 331.063C201.512 328.127 193.284 319.899 176.827 303.442L141.558 268.173Z" data-figma-gradient-fill="{&#34;type&#34;:&#34;GRADIENT_DIAMOND&#34;,&#34;stops&#34;:[{&#34;color&#34;:{&#34;r&#34;:1.0,&#34;g&#34;:0.6250,&#34;b&#34;:0.91750001907348633,&#34;a&#34;:1.0},&#34;position&#34;:0.0},{&#34;color&#34;:{&#34;r&#34;:1.0,&#34;g&#34;:1.0,&#34;b&#34;:1.0,&#34;a&#34;:0.0},&#34;position&#34;:1.0}],&#34;stopsVar&#34;:[],&#34;transform&#34;:{&#34;m00&#34;:90.750587463378906,&#34;m01&#34;:141.60476684570312,&#34;m02&#34;:48.189155578613281,&#34;m10&#34;:-267.47552490234375,&#34;m11&#34;:48.044460296630859,&#34;m12&#34;:321.88742065429688},&#34;opacity&#34;:1.0,&#34;blendMode&#34;:&#34;NORMAL&#34;,&#34;visible&#34;:true}"/>
<path d="M141.558 268.173C125.101 251.716 116.873 243.488 113.937 233.943C111.567 226.241 111.567 218.004 113.937 210.302C116.873 200.758 125.101 192.529 141.558 176.072L176.827 140.803C193.284 124.347 201.512 116.118 211.057 113.182C218.759 110.813 226.995 110.813 234.698 113.182C244.242 116.118 252.47 124.347 268.927 140.803L304.196 176.072C320.653 192.529 328.881 200.758 331.818 210.302C334.187 218.004 334.187 226.241 331.818 233.943C328.881 243.488 320.653 251.716 304.196 268.173L268.927 303.442C252.47 319.899 244.242 328.127 234.698 331.063C226.995 333.433 218.759 333.433 211.057 331.063C201.512 328.127 193.284 319.899 176.827 303.442L141.558 268.173Z" fill="url(#paint3_linear_392_545)"/>
<path d="M141.558 268.173C125.101 251.716 116.873 243.488 113.937 233.943C111.567 226.241 111.567 218.004 113.937 210.302C116.873 200.758 125.101 192.529 141.558 176.072L176.827 140.803C193.284 124.347 201.512 116.118 211.057 113.182C218.759 110.813 226.995 110.813 234.698 113.182C244.242 116.118 252.47 124.347 268.927 140.803L304.196 176.072C320.653 192.529 328.881 200.758 331.818 210.302C334.187 218.004 334.187 226.241 331.818 233.943C328.881 243.488 320.653 251.716 304.196 268.173L268.927 303.442C252.47 319.899 244.242 328.127 234.698 331.063C226.995 333.433 218.759 333.433 211.057 331.063C201.512 328.127 193.284 319.899 176.827 303.442L141.558 268.173Z" fill="url(#paint4_linear_392_545)"/>
<path d="M141.558 268.173C125.101 251.716 116.873 243.488 113.937 233.943C111.567 226.241 111.567 218.004 113.937 210.302C116.873 200.758 125.101 192.529 141.558 176.072L176.827 140.803C193.284 124.347 201.512 116.118 211.057 113.182C218.759 110.813 226.995 110.813 234.698 113.182C244.242 116.118 252.47 124.347 268.927 140.803L304.196 176.072C320.653 192.529 328.881 200.758 331.818 210.302C334.187 218.004 334.187 226.241 331.818 233.943C328.881 243.488 320.653 251.716 304.196 268.173L268.927 303.442C252.47 319.899 244.242 328.127 234.698 331.063C226.995 333.433 218.759 333.433 211.057 331.063C201.512 328.127 193.284 319.899 176.827 303.442L141.558 268.173Z" fill="url(#paint5_linear_392_545)"/>
</g>
<path d="M145.498 252.823C134.527 241.852 129.042 236.366 127.084 230.003C125.504 224.868 125.504 219.377 127.084 214.242C129.042 207.879 134.527 202.394 145.498 191.423L192.175 144.746C203.146 133.775 208.631 128.29 214.994 126.332C220.129 124.752 225.62 124.752 230.755 126.332C237.118 128.29 242.604 133.775 253.575 144.746L300.251 191.423C311.222 202.394 316.708 207.879 318.665 214.242C320.245 219.377 320.245 224.868 318.665 230.003C316.708 236.366 311.222 241.852 300.251 252.823L253.575 299.499C242.604 310.47 237.118 315.956 230.755 317.913C225.62 319.493 220.129 319.493 214.994 317.913C208.631 315.956 203.146 310.47 192.175 299.499L145.498 252.823Z" fill="black" fill-opacity="0.2"/>
<g filter="url(#filter1_ddi_392_545)">
<path d="M167.827 245.148C159.599 236.919 155.485 232.805 154.017 228.033C152.832 224.182 152.832 220.063 154.017 216.212C155.485 211.44 159.599 207.326 167.827 199.098L199.848 167.077C208.076 158.849 212.19 154.735 216.962 153.267C220.813 152.082 224.932 152.082 228.783 153.267C233.555 154.735 237.669 158.849 245.898 167.077L277.918 199.098C286.146 207.326 290.261 211.44 291.729 216.212C292.913 220.063 292.913 224.182 291.729 228.033C290.261 232.805 286.146 236.919 277.918 245.148L245.898 277.168C237.669 285.396 233.555 289.511 228.783 290.979C224.932 292.163 220.813 292.163 216.962 290.979C212.19 289.511 208.076 285.396 199.848 277.168L167.827 245.148Z" fill="url(#paint6_linear_392_545)"/>
</g>
<path d="M220.833 259.49C216.009 259.49 211.218 258.863 206.46 257.607C201.702 256.285 197.67 254.435 194.366 252.056L200.611 239.764C203.255 241.68 206.328 243.2 209.83 244.324C213.333 245.447 216.868 246.009 220.437 246.009C224.468 246.009 227.64 245.216 229.953 243.63C232.266 242.044 233.423 239.863 233.423 237.087C233.423 234.444 232.398 232.362 230.35 230.842C228.301 229.322 224.997 228.562 220.437 228.562H213.101V217.956L232.431 196.048L234.216 201.798H197.836V188.911H246.408V199.32L227.178 221.227L219.049 216.568H223.708C232.233 216.568 238.676 218.484 243.038 222.317C247.4 226.15 249.581 231.074 249.581 237.087C249.581 240.986 248.556 244.654 246.508 248.091C244.459 251.461 241.32 254.204 237.09 256.318C232.861 258.433 227.442 259.49 220.833 259.49Z" fill="#7E6D61"/>
<defs>
<filter id="filter0_ddi_392_545" x="-7.62939e-05" y="4.89191" width="445.754" height="445.754" filterUnits="userSpaceOnUse" color-interpolation-filters="sRGB">
<feFlood flood-opacity="0" result="BackgroundImageFix"/>
<feColorMatrix in="SourceAlpha" type="matrix" values="0 0 0 0 0 0 0 0 0 0 0 0 0 0 0 0 0 0 127 0" result="hardAlpha"/>
<feOffset dy="5.64631"/>
<feGaussianBlur stdDeviation="47.1015"/>
<feComposite in2="hardAlpha" operator="out"/>
<feColorMatrix type="matrix" values="0 0 0 0 0.501961 0 0 0 0 0.435294 0 0 0 0 0.403922 0 0 0 0.34 0"/>
<feBlend mode="normal" in2="BackgroundImageFix" result="effect1_dropShadow_392_545"/>
<feColorMatrix in="SourceAlpha" type="matrix" values="0 0 0 0 0 0 0 0 0 0 0 0 0 0 0 0 0 0 127 0" result="hardAlpha"/>
<feOffset dy="5.64631"/>
<feGaussianBlur stdDeviation="56.0796"/>
<feComposite in2="hardAlpha" operator="out"/>
<feColorMatrix type="matrix" values="0 0 0 0 0.805127 0 0 0 0 0.720072 0 0 0 0 0.680047 0 0 0 0.25 0"/>
<feBlend mode="normal" in2="effect1_dropShadow_392_545" result="effect2_dropShadow_392_545"/>
<feBlend mode="normal" in="SourceGraphic" in2="effect2_dropShadow_392_545" result="shape"/>
<feColorMatrix in="SourceAlpha" type="matrix" values="0 0 0 0 0 0 0 0 0 0 0 0 0 0 0 0 0 0 127 0" result="hardAlpha"/>
<feOffset/>
<feGaussianBlur stdDeviation="11.3584"/>
<feComposite in2="hardAlpha" operator="arithmetic" k2="-1" k3="1"/>
<feColorMatrix type="matrix" values="0 0 0 0 1 0 0 0 0 1 0 0 0 0 1 0 0 0 0.7 0"/>
<feBlend mode="normal" in2="shape" result="effect3_innerShadow_392_545"/>
</filter>
<clipPath id="paint1_diamond_392_545_clip_path"><path d="M141.558 268.173C125.101 251.716 116.873 243.488 113.937 233.943C111.567 226.241 111.567 218.004 113.937 210.302C116.873 200.758 125.101 192.529 141.558 176.072L176.827 140.803C193.284 124.347 201.512 116.118 211.057 113.182C218.759 110.813 226.995 110.813 234.698 113.182C244.242 116.118 252.47 124.347 268.927 140.803L304.196 176.072C320.653 192.529 328.881 200.758 331.818 210.302C334.187 218.004 334.187 226.241 331.818 233.943C328.881 243.488 320.653 251.716 304.196 268.173L268.927 303.442C252.47 319.899 244.242 328.127 234.698 331.063C226.995 333.433 218.759 333.433 211.057 331.063C201.512 328.127 193.284 319.899 176.827 303.442L141.558 268.173Z"/></clipPath><clipPath id="paint2_diamond_392_545_clip_path"><path d="M141.558 268.173C125.101 251.716 116.873 243.488 113.937 233.943C111.567 226.241 111.567 218.004 113.937 210.302C116.873 200.758 125.101 192.529 141.558 176.072L176.827 140.803C193.284 124.347 201.512 116.118 211.057 113.182C218.759 110.813 226.995 110.813 234.698 113.182C244.242 116.118 252.47 124.347 268.927 140.803L304.196 176.072C320.653 192.529 328.881 200.758 331.818 210.302C334.187 218.004 334.187 226.241 331.818 233.943C328.881 243.488 320.653 251.716 304.196 268.173L268.927 303.442C252.47 319.899 244.242 328.127 234.698 331.063C226.995 333.433 218.759 333.433 211.057 331.063C201.512 328.127 193.284 319.899 176.827 303.442L141.558 268.173Z"/></clipPath><filter id="filter1_ddi_392_545" x="40.9687" y="45.8651" width="363.808" height="363.808" filterUnits="userSpaceOnUse" color-interpolation-filters="sRGB">
<feFlood flood-opacity="0" result="BackgroundImageFix"/>
<feColorMatrix in="SourceAlpha" type="matrix" values="0 0 0 0 0 0 0 0 0 0 0 0 0 0 0 0 0 0 127 0" result="hardAlpha"/>
<feOffset dy="5.64631"/>
<feGaussianBlur stdDeviation="47.1015"/>
<feComposite in2="hardAlpha" operator="out"/>
<feColorMatrix type="matrix" values="0 0 0 0 0.50389 0 0 0 0 0.436059 0 0 0 0 0.402144 0 0 0 1 0"/>
<feBlend mode="normal" in2="BackgroundImageFix" result="effect1_dropShadow_392_545"/>
<feColorMatrix in="SourceAlpha" type="matrix" values="0 0 0 0 0 0 0 0 0 0 0 0 0 0 0 0 0 0 127 0" result="hardAlpha"/>
<feOffset dy="5.64631"/>
<feGaussianBlur stdDeviation="56.0796"/>
<feComposite in2="hardAlpha" operator="out"/>
<feColorMatrix type="matrix" values="0 0 0 0 1 0 0 0 0 1 0 0 0 0 1 0 0 0 0.25 0"/>
<feBlend mode="normal" in2="effect1_dropShadow_392_545" result="effect2_dropShadow_392_545"/>
<feBlend mode="normal" in="SourceGraphic" in2="effect2_dropShadow_392_545" result="shape"/>
<feColorMatrix in="SourceAlpha" type="matrix" values="0 0 0 0 0 0 0 0 0 0 0 0 0 0 0 0 0 0 127 0" result="hardAlpha"/>
<feOffset/>
<feGaussianBlur stdDeviation="11.3584"/>
<feComposite in2="hardAlpha" operator="arithmetic" k2="-1" k3="1"/>
<feColorMatrix type="matrix" values="0 0 0 0 1 0 0 0 0 1 0 0 0 0 1 0 0 0 0.7 0"/>
<feBlend mode="normal" in2="shape" result="effect3_innerShadow_392_545"/>
</filter>
<linearGradient id="paint0_linear_392_545" x1="111.816" y1="111.061" x2="295.067" y2="294.312" gradientUnits="userSpaceOnUse">
<stop stop-color="white"/>
<stop offset="1" stop-color="white" stop-opacity="0"/>
</linearGradient>
<linearGradient id="paint1_diamond_392_545" x1="0" y1="0" x2="500" y2="500" gradientUnits="userSpaceOnUse">
<stop offset="0.421875" stop-color="#A349EF"/>
<stop offset="1" stop-color="#FF65E6"/>
</linearGradient>
<linearGradient id="paint2_diamond_392_545" x1="0" y1="0" x2="500" y2="500" gradientUnits="userSpaceOnUse">
<stop stop-color="#FF9FEA"/>
<stop offset="1" stop-color="white" stop-opacity="0"/>
</linearGradient>
<linearGradient id="paint3_linear_392_545" x1="101.346" y1="221.592" x2="348.654" y2="234.329" gradientUnits="userSpaceOnUse">
<stop stop-color="#7A96AC"/>
<stop offset="0.18" stop-color="#EAEFF3"/>
<stop offset="0.315" stop-color="#C2D4E1"/>
<stop offset="0.491919" stop-color="white"/>
<stop offset="0.615" stop-color="#D4DEE5"/>
<stop offset="0.785" stop-color="#ABBDC8"/>
<stop offset="0.955" stop-color="#BCCAD7"/>
</linearGradient>
<linearGradient id="paint4_linear_392_545" x1="134.78" y1="227.43" x2="333.264" y2="228.491" gradientUnits="userSpaceOnUse">
<stop stop-color="#9E8976"/>
<stop offset="0.195" stop-color="#7A5E50"/>
<stop offset="0.41" stop-color="#F6D0AB"/>
<stop offset="0.61" stop-color="#9D774E"/>
<stop offset="0.855" stop-color="#C99B70"/>
<stop offset="1" stop-color="#795F52"/>
</linearGradient>
<linearGradient id="paint5_linear_392_545" x1="274.507" y1="147.777" x2="214.617" y2="321.251" gradientUnits="userSpaceOnUse">
<stop stop-color="#9E8976"/>
<stop offset="0.195" stop-color="#7A5E50"/>
<stop offset="0.41" stop-color="#F6D0AB"/>
<stop offset="0.61" stop-color="#9D774E"/>
<stop offset="0.855" stop-color="#C99B70"/>
<stop offset="1" stop-color="#795F52"/>
</linearGradient>
<linearGradient id="paint6_linear_392_545" x1="156.788" y1="222.123" x2="274.502" y2="261.361" gradientUnits="userSpaceOnUse">
<stop stop-color="#9E8976"/>
<stop offset="0.195" stop-color="#7A5E50"/>
<stop offset="0.41" stop-color="#F6D0AB"/>
<stop offset="0.61" stop-color="#9D774E"/>
<stop offset="0.855" stop-color="#C99B70"/>
<stop offset="1" stop-color="#795F52"/>
</linearGradient>
</defs>
</svg>
