<svg width="446" height="451" viewBox="0 0 446 451" fill="none" xmlns="http://www.w3.org/2000/svg">
<rect x="0.754395" y="222.123" width="314.129" height="314.129" rx="73.7008" transform="rotate(-45 0.754395 222.123)" fill="#EEC44D"/>
<rect x="5.49206" y="222.123" width="307.429" height="307.429" rx="70.3508" transform="rotate(-45 5.49206 222.123)" stroke="url(#paint0_linear_392_527)" stroke-opacity="0.28" stroke-width="6.70007"/>
<g filter="url(#filter0_ddi_392_527)">
<g clip-path="url(#paint1_diamond_392_527_clip_path)" data-figma-skip-parse="true"><g transform="matrix(0.136782 -0.26242 0.26242 0.136782 168.214 336.224)"><rect x="0" y="0" width="837.355" height="424.48" fill="url(#paint1_diamond_392_527)" opacity="1" shape-rendering="crispEdges"/><rect x="0" y="0" width="837.355" height="424.48" transform="scale(1 -1)" fill="url(#paint1_diamond_392_527)" opacity="1" shape-rendering="crispEdges"/><rect x="0" y="0" width="837.355" height="424.48" transform="scale(-1 1)" fill="url(#paint1_diamond_392_527)" opacity="1" shape-rendering="crispEdges"/><rect x="0" y="0" width="837.355" height="424.48" transform="scale(-1)" fill="url(#paint1_diamond_392_527)" opacity="1" shape-rendering="crispEdges"/></g></g><path d="M141.558 268.173C125.101 251.716 116.873 243.488 113.937 233.943C111.567 226.241 111.567 218.004 113.937 210.302C116.873 200.758 125.101 192.529 141.558 176.072L176.827 140.803C193.284 124.347 201.512 116.118 211.057 113.182C218.759 110.813 226.995 110.813 234.698 113.182C244.242 116.118 252.47 124.347 268.927 140.803L304.196 176.072C320.653 192.529 328.881 200.758 331.818 210.302C334.187 218.004 334.187 226.241 331.818 233.943C328.881 243.488 320.653 251.716 304.196 268.173L268.927 303.442C252.47 319.899 244.242 328.127 234.698 331.063C226.995 333.433 218.759 333.433 211.057 331.063C201.512 328.127 193.284 319.899 176.827 303.442L141.558 268.173Z" data-figma-gradient-fill="{&#34;type&#34;:&#34;GRADIENT_DIAMOND&#34;,&#34;stops&#34;:[{&#34;color&#34;:{&#34;r&#34;:0.63921570777893066,&#34;g&#34;:0.28627452254295349,&#34;b&#34;:0.93725490570068359,&#34;a&#34;:1.0},&#34;position&#34;:0.4218750},{&#34;color&#34;:{&#34;r&#34;:1.0,&#34;g&#34;:0.39550781250,&#34;b&#34;:0.90328133106231689,&#34;a&#34;:1.0},&#34;position&#34;:1.0}],&#34;stopsVar&#34;:[],&#34;transform&#34;:{&#34;m00&#34;:273.56457519531250,&#34;m01&#34;:524.83966064453125,&#34;m02&#34;:-230.98765563964844,&#34;m10&#34;:-524.83966064453125,&#34;m11&#34;:273.56457519531250,&#34;m12&#34;:461.861816406250},&#34;opacity&#34;:1.0,&#34;blendMode&#34;:&#34;NORMAL&#34;,&#34;visible&#34;:true}"/>
<g clip-path="url(#paint2_diamond_392_527_clip_path)" data-figma-skip-parse="true"><g transform="matrix(0.0453753 -0.133738 0.0708024 0.0240222 164.367 212.172)"><rect x="0" y="0" width="983.992" height="2517.09" fill="url(#paint2_diamond_392_527)" opacity="1" shape-rendering="crispEdges"/><rect x="0" y="0" width="983.992" height="2517.09" transform="scale(1 -1)" fill="url(#paint2_diamond_392_527)" opacity="1" shape-rendering="crispEdges"/><rect x="0" y="0" width="983.992" height="2517.09" transform="scale(-1 1)" fill="url(#paint2_diamond_392_527)" opacity="1" shape-rendering="crispEdges"/><rect x="0" y="0" width="983.992" height="2517.09" transform="scale(-1)" fill="url(#paint2_diamond_392_527)" opacity="1" shape-rendering="crispEdges"/></g></g><path d="M141.558 268.173C125.101 251.716 116.873 243.488 113.937 233.943C111.567 226.241 111.567 218.004 113.937 210.302C116.873 200.758 125.101 192.529 141.558 176.072L176.827 140.803C193.284 124.347 201.512 116.118 211.057 113.182C218.759 110.813 226.995 110.813 234.698 113.182C244.242 116.118 252.47 124.347 268.927 140.803L304.196 176.072C320.653 192.529 328.881 200.758 331.818 210.302C334.187 218.004 334.187 226.241 331.818 233.943C328.881 243.488 320.653 251.716 304.196 268.173L268.927 303.442C252.47 319.899 244.242 328.127 234.698 331.063C226.995 333.433 218.759 333.433 211.057 331.063C201.512 328.127 193.284 319.899 176.827 303.442L141.558 268.173Z" data-figma-gradient-fill="{&#34;type&#34;:&#34;GRADIENT_DIAMOND&#34;,&#34;stops&#34;:[{&#34;color&#34;:{&#34;r&#34;:1.0,&#34;g&#34;:0.6250,&#34;b&#34;:0.91750001907348633,&#34;a&#34;:1.0},&#34;position&#34;:0.0},{&#34;color&#34;:{&#34;r&#34;:1.0,&#34;g&#34;:1.0,&#34;b&#34;:1.0,&#34;a&#34;:0.0},&#34;position&#34;:1.0}],&#34;stopsVar&#34;:[],&#34;transform&#34;:{&#34;m00&#34;:90.750587463378906,&#34;m01&#34;:141.60476684570312,&#34;m02&#34;:48.189155578613281,&#34;m10&#34;:-267.47552490234375,&#34;m11&#34;:48.044460296630859,&#34;m12&#34;:321.88742065429688},&#34;opacity&#34;:1.0,&#34;blendMode&#34;:&#34;NORMAL&#34;,&#34;visible&#34;:true}"/>
<path d="M141.558 268.173C125.101 251.716 116.873 243.488 113.937 233.943C111.567 226.241 111.567 218.004 113.937 210.302C116.873 200.758 125.101 192.529 141.558 176.072L176.827 140.803C193.284 124.347 201.512 116.118 211.057 113.182C218.759 110.813 226.995 110.813 234.698 113.182C244.242 116.118 252.47 124.347 268.927 140.803L304.196 176.072C320.653 192.529 328.881 200.758 331.818 210.302C334.187 218.004 334.187 226.241 331.818 233.943C328.881 243.488 320.653 251.716 304.196 268.173L268.927 303.442C252.47 319.899 244.242 328.127 234.698 331.063C226.995 333.433 218.759 333.433 211.057 331.063C201.512 328.127 193.284 319.899 176.827 303.442L141.558 268.173Z" fill="url(#paint3_linear_392_527)"/>
<path d="M141.558 268.173C125.101 251.716 116.873 243.488 113.937 233.943C111.567 226.241 111.567 218.004 113.937 210.302C116.873 200.758 125.101 192.529 141.558 176.072L176.827 140.803C193.284 124.347 201.512 116.118 211.057 113.182C218.759 110.813 226.995 110.813 234.698 113.182C244.242 116.118 252.47 124.347 268.927 140.803L304.196 176.072C320.653 192.529 328.881 200.758 331.818 210.302C334.187 218.004 334.187 226.241 331.818 233.943C328.881 243.488 320.653 251.716 304.196 268.173L268.927 303.442C252.47 319.899 244.242 328.127 234.698 331.063C226.995 333.433 218.759 333.433 211.057 331.063C201.512 328.127 193.284 319.899 176.827 303.442L141.558 268.173Z" fill="url(#paint4_linear_392_527)"/>
<path d="M141.558 268.173C125.101 251.716 116.873 243.488 113.937 233.943C111.567 226.241 111.567 218.004 113.937 210.302C116.873 200.758 125.101 192.529 141.558 176.072L176.827 140.803C193.284 124.347 201.512 116.118 211.057 113.182C218.759 110.813 226.995 110.813 234.698 113.182C244.242 116.118 252.47 124.347 268.927 140.803L304.196 176.072C320.653 192.529 328.881 200.758 331.818 210.302C334.187 218.004 334.187 226.241 331.818 233.943C328.881 243.488 320.653 251.716 304.196 268.173L268.927 303.442C252.47 319.899 244.242 328.127 234.698 331.063C226.995 333.433 218.759 333.433 211.057 331.063C201.512 328.127 193.284 319.899 176.827 303.442L141.558 268.173Z" fill="url(#paint5_linear_392_527)"/>
</g>
<rect x="114.798" y="222.123" width="152.843" height="152.843" rx="26.8003" transform="rotate(-45 114.798 222.123)" fill="black" fill-opacity="0.2"/>
<g filter="url(#filter1_ddi_392_527)">
<g clip-path="url(#paint6_diamond_392_527_clip_path)" data-figma-skip-parse="true"><g transform="matrix(0.08384 -0.160849 0.160849 0.08384 189.368 292.061)"><rect x="0" y="0" width="855.284" height="442.41" fill="url(#paint6_diamond_392_527)" opacity="1" shape-rendering="crispEdges"/><rect x="0" y="0" width="855.284" height="442.41" transform="scale(1 -1)" fill="url(#paint6_diamond_392_527)" opacity="1" shape-rendering="crispEdges"/><rect x="0" y="0" width="855.284" height="442.41" transform="scale(-1 1)" fill="url(#paint6_diamond_392_527)" opacity="1" shape-rendering="crispEdges"/><rect x="0" y="0" width="855.284" height="442.41" transform="scale(-1)" fill="url(#paint6_diamond_392_527)" opacity="1" shape-rendering="crispEdges"/></g></g><path d="M167.828 245.148C159.599 236.919 155.485 232.805 154.017 228.033C152.832 224.182 152.832 220.063 154.017 216.212C155.485 211.44 159.599 207.326 167.828 199.098L199.848 167.077C208.076 158.849 212.191 154.735 216.963 153.267C220.814 152.082 224.932 152.082 228.783 153.267C233.556 154.735 237.67 158.849 245.898 167.077L277.918 199.098C286.147 207.326 290.261 211.44 291.729 216.212C292.914 220.063 292.914 224.182 291.729 228.033C290.261 232.805 286.147 236.919 277.918 245.148L245.898 277.168C237.67 285.396 233.556 289.511 228.783 290.979C224.932 292.163 220.814 292.163 216.963 290.979C212.191 289.511 208.076 285.396 199.848 277.168L167.828 245.148Z" data-figma-gradient-fill="{&#34;type&#34;:&#34;GRADIENT_DIAMOND&#34;,&#34;stops&#34;:[{&#34;color&#34;:{&#34;r&#34;:0.63921570777893066,&#34;g&#34;:0.28627452254295349,&#34;b&#34;:0.93725490570068359,&#34;a&#34;:1.0},&#34;position&#34;:0.4218750},{&#34;color&#34;:{&#34;r&#34;:1.0,&#34;g&#34;:0.39550781250,&#34;b&#34;:0.90328133106231689,&#34;a&#34;:1.0},&#34;position&#34;:1.0}],&#34;stopsVar&#34;:[],&#34;transform&#34;:{&#34;m00&#34;:167.68009948730469,&#34;m01&#34;:321.69796752929688,&#34;m02&#34;:-55.321105957031250,&#34;m10&#34;:-321.69796752929688,&#34;m11&#34;:167.68009948730469,&#34;m12&#34;:369.06964111328125},&#34;opacity&#34;:1.0,&#34;blendMode&#34;:&#34;NORMAL&#34;,&#34;visible&#34;:true}"/>
<path d="M167.828 245.148C159.599 236.919 155.485 232.805 154.017 228.033C152.832 224.182 152.832 220.063 154.017 216.212C155.485 211.44 159.599 207.326 167.828 199.098L199.848 167.077C208.076 158.849 212.191 154.735 216.963 153.267C220.814 152.082 224.932 152.082 228.783 153.267C233.556 154.735 237.67 158.849 245.898 167.077L277.918 199.098C286.147 207.326 290.261 211.44 291.729 216.212C292.914 220.063 292.914 224.182 291.729 228.033C290.261 232.805 286.147 236.919 277.918 245.148L245.898 277.168C237.67 285.396 233.556 289.511 228.783 290.979C224.932 292.163 220.814 292.163 216.963 290.979C212.191 289.511 208.076 285.396 199.848 277.168L167.828 245.148Z" fill="url(#paint7_linear_392_527)"/>
</g>
<path d="M216.691 259.49C211.867 259.49 207.076 258.862 202.318 257.607C197.626 256.285 193.595 254.435 190.224 252.056L196.568 239.764C199.212 241.68 202.252 243.2 205.688 244.324C209.191 245.447 212.726 246.009 216.295 246.009C220.326 246.009 223.498 245.216 225.811 243.63C228.124 242.044 229.281 239.83 229.281 236.988C229.281 235.204 228.818 233.618 227.893 232.23C226.968 230.842 225.316 229.785 222.936 229.058C220.623 228.331 217.352 227.967 213.123 227.967H195.379L198.947 188.911H241.275V201.798H204.697L213.024 194.462L210.545 222.317L202.219 214.982H216.89C223.762 214.982 229.281 215.94 233.444 217.856C237.673 219.707 240.746 222.251 242.663 225.489C244.579 228.727 245.538 232.395 245.538 236.492C245.538 240.59 244.513 244.39 242.465 247.892C240.416 251.329 237.244 254.137 232.948 256.318C228.719 258.433 223.3 259.49 216.691 259.49Z" fill="#825537"/>
<defs>
<filter id="filter0_ddi_392_527" x="-6.86646e-05" y="4.89192" width="445.754" height="445.754" filterUnits="userSpaceOnUse" color-interpolation-filters="sRGB">
<feFlood flood-opacity="0" result="BackgroundImageFix"/>
<feColorMatrix in="SourceAlpha" type="matrix" values="0 0 0 0 0 0 0 0 0 0 0 0 0 0 0 0 0 0 127 0" result="hardAlpha"/>
<feOffset dy="5.64631"/>
<feGaussianBlur stdDeviation="47.1015"/>
<feComposite in2="hardAlpha" operator="out"/>
<feColorMatrix type="matrix" values="0 0 0 0 0.501961 0 0 0 0 0.435294 0 0 0 0 0.403922 0 0 0 0.34 0"/>
<feBlend mode="normal" in2="BackgroundImageFix" result="effect1_dropShadow_392_527"/>
<feColorMatrix in="SourceAlpha" type="matrix" values="0 0 0 0 0 0 0 0 0 0 0 0 0 0 0 0 0 0 127 0" result="hardAlpha"/>
<feOffset dy="5.64631"/>
<feGaussianBlur stdDeviation="56.0796"/>
<feComposite in2="hardAlpha" operator="out"/>
<feColorMatrix type="matrix" values="0 0 0 0 0.805127 0 0 0 0 0.720072 0 0 0 0 0.680047 0 0 0 0.25 0"/>
<feBlend mode="normal" in2="effect1_dropShadow_392_527" result="effect2_dropShadow_392_527"/>
<feBlend mode="normal" in="SourceGraphic" in2="effect2_dropShadow_392_527" result="shape"/>
<feColorMatrix in="SourceAlpha" type="matrix" values="0 0 0 0 0 0 0 0 0 0 0 0 0 0 0 0 0 0 127 0" result="hardAlpha"/>
<feOffset/>
<feGaussianBlur stdDeviation="11.3584"/>
<feComposite in2="hardAlpha" operator="arithmetic" k2="-1" k3="1"/>
<feColorMatrix type="matrix" values="0 0 0 0 1 0 0 0 0 1 0 0 0 0 1 0 0 0 1 0"/>
<feBlend mode="normal" in2="shape" result="effect3_innerShadow_392_527"/>
</filter>
<clipPath id="paint1_diamond_392_527_clip_path"><path d="M141.558 268.173C125.101 251.716 116.873 243.488 113.937 233.943C111.567 226.241 111.567 218.004 113.937 210.302C116.873 200.758 125.101 192.529 141.558 176.072L176.827 140.803C193.284 124.347 201.512 116.118 211.057 113.182C218.759 110.813 226.995 110.813 234.698 113.182C244.242 116.118 252.47 124.347 268.927 140.803L304.196 176.072C320.653 192.529 328.881 200.758 331.818 210.302C334.187 218.004 334.187 226.241 331.818 233.943C328.881 243.488 320.653 251.716 304.196 268.173L268.927 303.442C252.47 319.899 244.242 328.127 234.698 331.063C226.995 333.433 218.759 333.433 211.057 331.063C201.512 328.127 193.284 319.899 176.827 303.442L141.558 268.173Z"/></clipPath><clipPath id="paint2_diamond_392_527_clip_path"><path d="M141.558 268.173C125.101 251.716 116.873 243.488 113.937 233.943C111.567 226.241 111.567 218.004 113.937 210.302C116.873 200.758 125.101 192.529 141.558 176.072L176.827 140.803C193.284 124.347 201.512 116.118 211.057 113.182C218.759 110.813 226.995 110.813 234.698 113.182C244.242 116.118 252.47 124.347 268.927 140.803L304.196 176.072C320.653 192.529 328.881 200.758 331.818 210.302C334.187 218.004 334.187 226.241 331.818 233.943C328.881 243.488 320.653 251.716 304.196 268.173L268.927 303.442C252.47 319.899 244.242 328.127 234.698 331.063C226.995 333.433 218.759 333.433 211.057 331.063C201.512 328.127 193.284 319.899 176.827 303.442L141.558 268.173Z"/></clipPath><filter id="filter1_ddi_392_527" x="40.9692" y="45.8651" width="363.808" height="363.808" filterUnits="userSpaceOnUse" color-interpolation-filters="sRGB">
<feFlood flood-opacity="0" result="BackgroundImageFix"/>
<feColorMatrix in="SourceAlpha" type="matrix" values="0 0 0 0 0 0 0 0 0 0 0 0 0 0 0 0 0 0 127 0" result="hardAlpha"/>
<feOffset dy="5.64631"/>
<feGaussianBlur stdDeviation="47.1015"/>
<feComposite in2="hardAlpha" operator="out"/>
<feColorMatrix type="matrix" values="0 0 0 0 0.50389 0 0 0 0 0.436059 0 0 0 0 0.402144 0 0 0 1 0"/>
<feBlend mode="normal" in2="BackgroundImageFix" result="effect1_dropShadow_392_527"/>
<feColorMatrix in="SourceAlpha" type="matrix" values="0 0 0 0 0 0 0 0 0 0 0 0 0 0 0 0 0 0 127 0" result="hardAlpha"/>
<feOffset dy="5.64631"/>
<feGaussianBlur stdDeviation="56.0796"/>
<feComposite in2="hardAlpha" operator="out"/>
<feColorMatrix type="matrix" values="0 0 0 0 1 0 0 0 0 1 0 0 0 0 1 0 0 0 0.25 0"/>
<feBlend mode="normal" in2="effect1_dropShadow_392_527" result="effect2_dropShadow_392_527"/>
<feBlend mode="normal" in="SourceGraphic" in2="effect2_dropShadow_392_527" result="shape"/>
<feColorMatrix in="SourceAlpha" type="matrix" values="0 0 0 0 0 0 0 0 0 0 0 0 0 0 0 0 0 0 127 0" result="hardAlpha"/>
<feOffset/>
<feGaussianBlur stdDeviation="11.3584"/>
<feComposite in2="hardAlpha" operator="arithmetic" k2="-1" k3="1"/>
<feColorMatrix type="matrix" values="0 0 0 0 1 0 0 0 0 1 0 0 0 0 1 0 0 0 1 0"/>
<feBlend mode="normal" in2="shape" result="effect3_innerShadow_392_527"/>
</filter>
<clipPath id="paint6_diamond_392_527_clip_path"><path d="M167.828 245.148C159.599 236.919 155.485 232.805 154.017 228.033C152.832 224.182 152.832 220.063 154.017 216.212C155.485 211.44 159.599 207.326 167.828 199.098L199.848 167.077C208.076 158.849 212.191 154.735 216.963 153.267C220.814 152.082 224.932 152.082 228.783 153.267C233.556 154.735 237.67 158.849 245.898 167.077L277.918 199.098C286.147 207.326 290.261 211.44 291.729 216.212C292.914 220.063 292.914 224.182 291.729 228.033C290.261 232.805 286.147 236.919 277.918 245.148L245.898 277.168C237.67 285.396 233.556 289.511 228.783 290.979C224.932 292.163 220.814 292.163 216.963 290.979C212.191 289.511 208.076 285.396 199.848 277.168L167.828 245.148Z"/></clipPath><linearGradient id="paint0_linear_392_527" x1="157.819" y1="222.123" x2="157.819" y2="481.279" gradientUnits="userSpaceOnUse">
<stop stop-color="white"/>
<stop offset="1" stop-color="white" stop-opacity="0"/>
</linearGradient>
<linearGradient id="paint1_diamond_392_527" x1="0" y1="0" x2="500" y2="500" gradientUnits="userSpaceOnUse">
<stop offset="0.421875" stop-color="#A349EF"/>
<stop offset="1" stop-color="#FF65E6"/>
</linearGradient>
<linearGradient id="paint2_diamond_392_527" x1="0" y1="0" x2="500" y2="500" gradientUnits="userSpaceOnUse">
<stop stop-color="#FF9FEA"/>
<stop offset="1" stop-color="white" stop-opacity="0"/>
</linearGradient>
<linearGradient id="paint3_linear_392_527" x1="101.346" y1="221.592" x2="348.654" y2="234.329" gradientUnits="userSpaceOnUse">
<stop stop-color="#7A96AC"/>
<stop offset="0.18" stop-color="#EAEFF3"/>
<stop offset="0.315" stop-color="#C2D4E1"/>
<stop offset="0.491919" stop-color="white"/>
<stop offset="0.615" stop-color="#D4DEE5"/>
<stop offset="0.785" stop-color="#ABBDC8"/>
<stop offset="0.955" stop-color="#BCCAD7"/>
</linearGradient>
<linearGradient id="paint4_linear_392_527" x1="134.78" y1="227.43" x2="333.264" y2="228.491" gradientUnits="userSpaceOnUse">
<stop stop-color="#9E8976"/>
<stop offset="0.195" stop-color="#7A5E50"/>
<stop offset="0.41" stop-color="#F6D0AB"/>
<stop offset="0.61" stop-color="#9D774E"/>
<stop offset="0.855" stop-color="#C99B70"/>
<stop offset="1" stop-color="#795F52"/>
</linearGradient>
<linearGradient id="paint5_linear_392_527" x1="280.702" y1="158.103" x2="208.421" y2="308.86" gradientUnits="userSpaceOnUse">
<stop stop-color="#8C421D"/>
<stop offset="0.325272" stop-color="#FBE67B"/>
<stop offset="0.535488" stop-color="#FCFBE7"/>
<stop offset="0.769917" stop-color="#F7D14E"/>
<stop offset="1" stop-color="#D4A041"/>
</linearGradient>
<linearGradient id="paint6_diamond_392_527" x1="0" y1="0" x2="500" y2="500" gradientUnits="userSpaceOnUse">
<stop offset="0.421875" stop-color="#A349EF"/>
<stop offset="1" stop-color="#FF65E6"/>
</linearGradient>
<linearGradient id="paint7_linear_392_527" x1="160.919" y1="203.536" x2="284.829" y2="240.709" gradientUnits="userSpaceOnUse">
<stop stop-color="#8C421D"/>
<stop offset="0.325272" stop-color="#FBE67B"/>
<stop offset="0.535488" stop-color="#FCFBE7"/>
<stop offset="0.769917" stop-color="#F7D14E"/>
<stop offset="1" stop-color="#D4A041"/>
</linearGradient>
</defs>
</svg>
