<svg width="237" height="61" viewBox="0 0 237 61" fill="none" xmlns="http://www.w3.org/2000/svg">
<path d="M2.07324 50.3394V4.39795L25.2927 23.554L48.5122 4.39795V35.9931" stroke="#FCFCFC" stroke-width="4.14634" stroke-linecap="round"/>
<path d="M11.3608 27.2633L23.9657 49.0956L35.8051 32.759L46.7556 55.398L66.673 13.7688" stroke="#FCFCFC" stroke-width="4.14634" stroke-linecap="round"/>
<path d="M59.9671 12.699L68.4831 10.3041L71.7821 17.6647" stroke="#FCFCFC" stroke-width="4.14634" stroke-linecap="round"/>
<path d="M92.0653 41.3979H89.3255V25.1681H93.5977L98.4968 35.3611L103.396 25.1681H107.645V41.3979H104.905V28.7205L99.2398 39.9816H97.7074L92.0653 28.7205V41.3979ZM121.794 41.3979H119.426V39.7494C118.405 40.9723 117.035 41.5837 115.316 41.5837C114.032 41.5837 112.964 41.2199 112.112 40.4924C111.276 39.7649 110.858 38.7975 110.858 37.5901C110.858 36.3672 111.307 35.454 112.205 34.8503C113.103 34.2466 114.318 33.9447 115.85 33.9447H119.217V33.4804C119.217 31.8396 118.304 31.0192 116.477 31.0192C115.332 31.0192 114.14 31.4371 112.902 32.273L111.741 30.6477C113.242 29.4558 114.945 28.8598 116.849 28.8598C118.304 28.8598 119.488 29.2313 120.401 29.9743C121.33 30.7019 121.794 31.8551 121.794 33.4339V41.3979ZM119.194 36.8006V35.7558H116.268C114.395 35.7558 113.459 36.344 113.459 37.5204C113.459 38.1241 113.691 38.5885 114.156 38.9135C114.62 39.2231 115.262 39.3779 116.083 39.3779C116.919 39.3779 117.646 39.1457 118.265 38.6814C118.884 38.217 119.194 37.5901 119.194 36.8006ZM134.052 35.7326V29.0456H136.652V41.3979H134.052V39.1457C133.634 39.9042 133.054 40.5002 132.311 40.9336C131.583 41.367 130.794 41.5837 129.942 41.5837C128.549 41.5837 127.419 41.158 126.552 40.3067C125.701 39.4553 125.275 38.2247 125.275 36.6149V29.0456H127.876V35.8255C127.876 38.1009 128.82 39.2386 130.708 39.2386C131.606 39.2386 132.388 38.9445 133.054 38.3563C133.719 37.7526 134.052 36.878 134.052 35.7326ZM145.858 36.8471L149.48 25.1681H151.942L155.564 36.8471L159.65 25.1681H162.599L156.934 41.3979H154.217L150.804 30.2762H150.618L147.205 41.3979H144.488L138.823 25.1681H141.772L145.858 36.8471ZM176.248 36.3595H166.566C166.628 37.2573 167.038 37.9848 167.797 38.542C168.555 39.0838 169.422 39.3547 170.397 39.3547C171.945 39.3547 173.121 38.8671 173.926 37.8919L175.412 39.5172C174.081 40.8949 172.347 41.5837 170.211 41.5837C168.478 41.5837 166.999 41.011 165.776 39.8655C164.569 38.7046 163.965 37.1567 163.965 35.2218C163.965 33.2714 164.585 31.7235 165.823 30.578C167.061 29.4326 168.516 28.8598 170.188 28.8598C171.875 28.8598 173.307 29.3707 174.483 30.3923C175.66 31.3984 176.248 32.7915 176.248 34.5717V36.3595ZM166.566 34.3162H173.648C173.648 33.2791 173.323 32.482 172.672 31.9247C172.022 31.3675 171.217 31.0888 170.258 31.0888C169.313 31.0888 168.462 31.3829 167.704 31.9712C166.945 32.5439 166.566 33.3256 166.566 34.3162ZM189.115 41.3979H186.747V39.7494C185.725 40.9723 184.355 41.5837 182.637 41.5837C181.352 41.5837 180.284 41.2199 179.433 40.4924C178.597 39.7649 178.179 38.7975 178.179 37.5901C178.179 36.3672 178.628 35.454 179.526 34.8503C180.424 34.2466 181.639 33.9447 183.171 33.9447H186.538V33.4804C186.538 31.8396 185.625 31.0192 183.798 31.0192C182.653 31.0192 181.461 31.4371 180.222 32.273L179.061 30.6477C180.563 29.4558 182.266 28.8598 184.17 28.8598C185.625 28.8598 186.809 29.2313 187.722 29.9743C188.651 30.7019 189.115 31.8551 189.115 33.4339V41.3979ZM186.515 36.8006V35.7558H183.589C181.716 35.7558 180.78 36.344 180.78 37.5204C180.78 38.1241 181.012 38.5885 181.476 38.9135C181.941 39.2231 182.583 39.3779 183.403 39.3779C184.239 39.3779 184.967 39.1457 185.586 38.6814C186.205 38.217 186.515 37.5901 186.515 36.8006ZM195.336 41.3979H192.735V24.1697H195.336V41.3979ZM202.311 31.1353V37.4043C202.311 37.9925 202.466 38.4647 202.775 38.8207C203.085 39.1612 203.518 39.3315 204.076 39.3315C204.633 39.3315 205.167 39.0606 205.678 38.5188L206.746 40.3531C205.832 41.1735 204.819 41.5837 203.704 41.5837C202.605 41.5837 201.661 41.2045 200.871 40.446C200.097 39.672 199.71 38.6349 199.71 37.3347V31.1353H198.155V29.0456H199.71V25.1681H202.311V29.0456H205.562V31.1353H202.311ZM211.412 34.711V41.3979H208.811V24.1929H211.412V31.2978C211.783 30.5393 212.341 29.9434 213.084 29.51C213.842 29.0766 214.655 28.8598 215.522 28.8598C216.915 28.8598 218.037 29.2855 218.888 30.1369C219.755 30.9882 220.189 32.2188 220.189 33.8287V41.3979H217.588V34.6181C217.588 32.3427 216.644 31.2049 214.755 31.2049C213.858 31.2049 213.076 31.5068 212.41 32.1105C211.745 32.6987 211.412 33.5655 211.412 34.711ZM225.378 46.3203C224.248 46.3203 223.226 45.9101 222.313 45.0897L223.497 42.9768C224.039 43.4876 224.596 43.743 225.169 43.743C225.757 43.743 226.229 43.5341 226.585 43.1161C226.957 42.6982 227.142 42.2416 227.142 41.7462C227.142 41.5295 225.478 37.296 222.15 29.0456H224.936L228.628 38.1473L232.32 29.0456H235.106L229.116 43.7198C228.76 44.5247 228.249 45.1594 227.583 45.6238C226.918 46.0881 226.183 46.3203 225.378 46.3203Z" fill="#FCFCFC"/>
</svg>
