<svg width="24" height="24" viewBox="0 0 24 24" fill="none" xmlns="http://www.w3.org/2000/svg">
<g clip-path="url(#clip0_191_328)">
<path fill-rule="evenodd" clip-rule="evenodd" d="M0.666189 6.62786C-6.77611e-08 7.25571 0 8.265 0 10.2857V16.7143C0 18.735 -6.77611e-08 19.7443 0.666189 20.3721C1.33238 21 2.40328 21 4.54737 21H18.1895C20.3336 21 21.4045 21 22.0707 20.3721C22.7368 19.7443 22.7368 18.735 22.7368 16.7143V10.2857C22.7368 8.265 22.7368 7.25571 22.0707 6.62786C21.4045 6 20.3336 6 18.1895 6H4.54737C2.40328 6 1.33238 6 0.666189 6.62786ZM3.41053 8.14286C3.10902 8.14286 2.81986 8.25574 2.60666 8.45667C2.39346 8.6576 2.27368 8.93012 2.27368 9.21429C2.27368 9.49845 2.39346 9.77097 2.60666 9.9719C2.81986 10.1728 3.10902 10.2857 3.41053 10.2857H5.68421C5.98572 10.2857 6.27488 10.1728 6.48808 9.9719C6.70128 9.77097 6.82105 9.49845 6.82105 9.21429C6.82105 8.93012 6.70128 8.6576 6.48808 8.45667C6.27488 8.25574 5.98572 8.14286 5.68421 8.14286H3.41053ZM15.9158 17.7857C15.9158 17.5016 16.0356 17.229 16.2488 17.0281C16.462 16.8272 16.7511 16.7143 17.0526 16.7143H19.3263C19.6278 16.7143 19.917 16.8272 20.1302 17.0281C20.3434 17.229 20.4632 17.5016 20.4632 17.7857C20.4632 18.0699 20.3434 18.3424 20.1302 18.5433C19.917 18.7443 19.6278 18.8571 19.3263 18.8571H17.0526C16.7511 18.8571 16.462 18.7443 16.2488 18.5433C16.0356 18.3424 15.9158 18.0699 15.9158 17.7857ZM12.5053 13.5C12.5053 13.7842 12.3855 14.0567 12.1723 14.2576C11.9591 14.4585 11.6699 14.5714 11.3684 14.5714C11.0669 14.5714 10.7778 14.4585 10.5646 14.2576C10.3514 14.0567 10.2316 13.7842 10.2316 13.5C10.2316 13.2158 10.3514 12.9433 10.5646 12.7424C10.7778 12.5415 11.0669 12.4286 11.3684 12.4286C11.6699 12.4286 11.9591 12.5415 12.1723 12.7424C12.3855 12.9433 12.5053 13.2158 12.5053 13.5ZM14.7789 13.5C14.7789 14.3525 14.4196 15.17 13.78 15.7728C13.1404 16.3756 12.2729 16.7143 11.3684 16.7143C10.4639 16.7143 9.59641 16.3756 8.95681 15.7728C8.31722 15.17 7.95789 14.3525 7.95789 13.5C7.95789 12.6475 8.31722 11.83 8.95681 11.2272C9.59641 10.6244 10.4639 10.2857 11.3684 10.2857C12.2729 10.2857 13.1404 10.6244 13.78 11.2272C14.4196 11.83 14.7789 12.6475 14.7789 13.5Z" fill="#D92D20"/>
<path d="M21.4053 13.001C21.8074 12.992 22.2076 13.0619 22.582 13.208C22.9566 13.3542 23.2984 13.5735 23.5869 13.8525C23.8754 14.1316 24.1049 14.4653 24.2617 14.834C24.4186 15.2026 24.4999 15.5987 24.5 15.999C24.5001 16.3992 24.4193 16.7954 24.2627 17.1641C24.106 17.5328 23.8763 17.8673 23.5879 18.1465C23.2996 18.4255 22.9583 18.6447 22.584 18.791C22.2096 18.9374 21.8094 19.0078 21.4072 18.999C20.6182 18.9818 19.866 18.6595 19.3125 18.0996C18.7589 17.5396 18.4475 16.7866 18.4473 16.001C18.4471 15.2153 18.7581 14.4617 19.3115 13.9014C19.8648 13.3412 20.6162 13.0186 21.4053 13.001ZM21.416 0.5C22.0495 0.5 22.6589 0.748533 23.1084 1.19336C23.558 1.63834 23.8115 2.24343 23.8115 2.875V10.375C23.8115 11.0065 23.5579 11.6117 23.1084 12.0566C22.6589 12.5015 22.0495 12.75 21.416 12.75C20.7827 12.7499 20.174 12.5014 19.7246 12.0566C19.275 11.6117 19.0215 11.0065 19.0215 10.375V2.875C19.0215 2.24342 19.275 1.63834 19.7246 1.19336C20.174 0.74866 20.7827 0.500118 21.416 0.5Z" fill="#D92D20" stroke="white"/>
</g>
<defs>
<clipPath id="clip0_191_328">
<rect width="24" height="24" fill="white"/>
</clipPath>
</defs>
</svg>
