<svg width="23" height="17" viewBox="0 0 23 17" fill="none" xmlns="http://www.w3.org/2000/svg">
<path d="M14.25 8.25C14.25 9.04565 13.9339 9.80871 13.3713 10.3713C12.8087 10.9339 12.0456 11.25 11.25 11.25C10.4544 11.25 9.69129 10.9339 9.12868 10.3713C8.56607 9.80871 8.25 9.04565 8.25 8.25C8.25 7.45435 8.56607 6.69129 9.12868 6.12868C9.69129 5.56607 10.4544 5.25 11.25 5.25C12.0456 5.25 12.8087 5.56607 13.3713 6.12868C13.9339 6.69129 14.25 7.45435 14.25 8.25Z" stroke="#03624C" stroke-width="2.5" stroke-linecap="round" stroke-linejoin="round"/>
<path d="M1.25 8.25C2.85 4.153 6.586 1.25 11.25 1.25C15.914 1.25 19.65 4.153 21.25 8.25C19.65 12.347 15.914 15.25 11.25 15.25C6.586 15.25 2.85 12.347 1.25 8.25Z" stroke="#03624C" stroke-width="2.5" stroke-linecap="round" stroke-linejoin="round"/>
</svg>
