<svg width="24" height="21" viewBox="0 0 24 21" fill="none" xmlns="http://www.w3.org/2000/svg">
<path d="M13.3945 3.67072C12.9367 3.6212 12.4715 3.59282 12 3.58576C9.9395 3.5949 7.80354 4.0961 5.78174 5.05648C4.28058 5.79892 2.81828 6.84706 1.54834 8.13996C0.92464 8.79996 0.12862 9.7556 0 10.7752C0.0152 11.6584 0.96306 12.7486 1.54834 13.4105C2.7392 14.6526 4.16342 15.6707 5.78174 16.494C5.83675 16.5207 5.89193 16.547 5.94726 16.5731L4.44582 19.1951L6.48592 20.4008L17.5142 1.20016L15.5505 0L13.3945 3.67072ZM18.0513 4.9803L16.5527 7.57744C17.2421 8.47308 17.6514 9.57756 17.6514 10.7752C17.6514 13.7603 15.1209 16.1805 11.9985 16.1805C11.8635 16.1805 11.7327 16.1659 11.6001 16.157L10.6084 17.8738C11.0657 17.9228 11.5282 17.9585 12 17.9647C14.0624 17.9554 16.1972 17.4484 18.2168 16.494C19.7179 15.7515 21.1817 14.7034 22.4516 13.4105C23.0754 12.7505 23.8713 11.7948 24 10.7752C23.9848 9.89198 23.0369 8.80182 22.4516 8.13994C21.2608 6.89782 19.8351 5.87968 18.2168 5.05644C18.1622 5.02996 18.1062 5.00614 18.0513 4.9803ZM11.9985 5.36996C12.1355 5.36996 12.2713 5.37544 12.4058 5.3846L11.2441 7.39582C9.61386 7.72634 8.39062 9.11342 8.39062 10.7738C8.39062 11.1908 8.46744 11.5901 8.60888 11.9603V11.9617L7.44432 13.9788C6.7533 13.0824 6.34568 11.9742 6.34568 10.7752C6.3457 7.79008 8.87616 5.36994 11.9985 5.36996ZM15.3779 9.61066L12.7603 14.1458C14.3818 13.8091 15.5962 12.4283 15.5962 10.7738C15.5962 10.3643 15.5145 9.97498 15.3779 9.61066Z" fill="#03624C"/>
</svg>
