<svg width="24" height="24" viewBox="0 0 24 24" fill="none" xmlns="http://www.w3.org/2000/svg">
<path d="M12 7.001C14.1217 7.001 16.1566 7.84385 17.6569 9.34415C19.1571 10.8444 20 12.8793 20 15.001C20 17.1227 19.1571 19.1576 17.6569 20.6579C16.1566 22.1581 14.1217 23.001 12 23.001C9.87827 23.001 7.84344 22.1581 6.34315 20.6579C4.84285 19.1576 4 17.1227 4 15.001C4 12.8793 4.84285 10.8444 6.34315 9.34415C7.84344 7.84385 9.87827 7.001 12 7.001ZM12 9.001C10.4087 9.001 8.88258 9.63314 7.75736 10.7584C6.63214 11.8836 6 13.4097 6 15.001C6 16.5923 6.63214 18.1184 7.75736 19.2436C8.88258 20.3689 10.4087 21.001 12 21.001C13.5913 21.001 15.1174 20.3689 16.2426 19.2436C17.3679 18.1184 18 16.5923 18 15.001C18 13.4097 17.3679 11.8836 16.2426 10.7584C15.1174 9.63314 13.5913 9.001 12 9.001ZM12 10.501L13.322 13.181L16.28 13.611L14.14 15.696L14.645 18.642L12 17.251L9.355 18.641L9.86 15.696L7.72 13.61L10.678 13.18L12 10.501ZM18 2.001V5.001L16.637 6.139C15.5063 5.54476 14.2712 5.17497 13 5.05V2.001H18ZM11 2V5.05C9.72918 5.17478 8.49449 5.54424 7.364 6.138L6 5.001V2.001L11 2Z" fill="#03624C"/>
</svg>
