<svg width="29" height="29" viewBox="0 0 29 29" fill="none" xmlns="http://www.w3.org/2000/svg">
<path d="M7.19314 27.077C6.56795 27.077 6.04636 26.868 5.62836 26.45C5.21036 26.032 5.0009 25.5104 5 24.8852V4.84022C5 4.21594 5.20945 3.69479 5.62836 3.27679C6.04726 2.85879 6.56886 2.64934 7.19314 2.64844H21.8082C22.4325 2.64844 22.9541 2.85789 23.373 3.27679C23.7919 3.6957 24.0009 4.21729 24 4.84158V24.8852C24 25.5095 23.791 26.0311 23.373 26.45C22.955 26.8689 22.433 27.0779 21.8069 27.077H7.19314ZM14.5 12.3059L17.2143 10.6868L19.9286 12.3059V4.00558H14.5V12.3059Z" fill="#FCFCFC"/>
</svg>
