<svg width="32" height="32" viewBox="0 0 32 32" fill="none" xmlns="http://www.w3.org/2000/svg">
<path d="M5.18115 24.6118V12.9538C5.18115 12.5437 5.27312 12.1551 5.45706 11.788C5.641 11.421 5.89445 11.1188 6.21742 10.8813L13.9894 5.05231C14.4428 4.70689 14.9609 4.53418 15.5438 4.53418C16.1267 4.53418 16.6449 4.70689 17.0982 5.05231L24.8702 10.8813C25.1941 11.1188 25.4479 11.421 25.6319 11.788C25.8158 12.1551 25.9073 12.5437 25.9065 12.9538V24.6118C25.9065 25.3243 25.6526 25.9344 25.1448 26.4422C24.6371 26.9499 24.0274 27.2034 23.3158 27.2025H19.4298C19.0628 27.2025 18.7554 27.0782 18.5075 26.8295C18.2597 26.5808 18.1353 26.2733 18.1345 25.9072V19.4305C18.1345 19.0635 18.0101 18.7561 17.7614 18.5082C17.5127 18.2604 17.2053 18.136 16.8392 18.1352H14.2485C13.8815 18.1352 13.574 18.2595 13.3262 18.5082C13.0784 18.7569 12.954 19.0644 12.9532 19.4305V25.9072C12.9532 26.2742 12.8288 26.582 12.5801 26.8308C12.3314 27.0795 12.024 27.2034 11.6578 27.2025H7.77182C7.05939 27.2025 6.44972 26.9491 5.94281 26.4422C5.4359 25.9352 5.18202 25.3251 5.18115 24.6118Z" fill="#FCFCFC"/>
</svg>
