<svg width="29" height="29" viewBox="0 0 29 29" fill="none" xmlns="http://www.w3.org/2000/svg">
<path fill-rule="evenodd" clip-rule="evenodd" d="M3 10.4099C3.00194 9.31568 3.24015 8.2348 3.69836 7.24116C4.15656 6.24751 4.82395 5.36453 5.65488 4.65261C6.48582 3.94069 7.4607 3.41661 8.51286 3.1162C9.56502 2.8158 10.6696 2.74617 11.7512 2.91206C12.8328 3.07796 13.8657 3.47546 14.7795 4.0774C15.6933 4.67934 16.4662 5.47152 17.0456 6.39976C17.625 7.328 17.997 8.37041 18.1364 9.45571C18.2757 10.541 18.179 11.6436 17.8529 12.6881C16.7362 12.7211 15.6763 13.188 14.8982 13.9896C14.12 14.7912 13.6848 15.8644 13.6848 16.9816V17.3578C12.5276 17.8721 11.2602 18.0889 9.9978 17.9887C8.73543 17.8885 7.51812 17.4744 6.4565 16.7841C5.39487 16.0937 4.5226 15.149 3.91895 14.0358C3.3153 12.9226 2.99941 11.6762 3 10.4099ZM10.5991 4.84671C11.1936 4.84671 11.6729 5.32778 11.6729 5.92052V6.40674C12.0951 6.50396 12.486 6.70606 12.8094 6.99434C13.1329 7.28263 13.3784 7.6478 13.5233 8.0561C13.5703 8.18911 13.5907 8.33008 13.5833 8.47096C13.5759 8.61184 13.5407 8.74988 13.48 8.87719C13.4192 9.00451 13.3339 9.1186 13.229 9.21296C13.1242 9.30732 13.0017 9.3801 12.8687 9.42714C12.7357 9.47418 12.5947 9.49457 12.4539 9.48713C12.313 9.47969 12.1749 9.44458 12.0476 9.38379C11.9203 9.32301 11.8062 9.23774 11.7119 9.13287C11.6175 9.02799 11.5447 8.90555 11.4977 8.77255C11.4677 8.69068 11.4135 8.61987 11.3423 8.56954C11.2711 8.51921 11.1863 8.49174 11.0991 8.49078H9.93937C9.87524 8.49189 9.81374 8.51641 9.76643 8.55972C9.71913 8.60303 9.68928 8.66213 9.68253 8.72591C9.67577 8.78969 9.69256 8.85374 9.72974 8.90599C9.76692 8.95825 9.82192 8.99512 9.88439 9.00964L11.6489 9.3945C12.2193 9.51992 12.7301 9.83577 13.0971 10.2901C13.4642 10.7444 13.6657 11.3101 13.6685 11.8941C13.6713 12.4782 13.4752 13.0458 13.1125 13.5036C12.7498 13.9614 12.2421 14.2821 11.6729 14.413V14.901C11.6729 15.1858 11.5598 15.4589 11.3584 15.6603C11.157 15.8616 10.8839 15.9748 10.5991 15.9748C10.3143 15.9748 10.0412 15.8616 9.83982 15.6603C9.63844 15.4589 9.52531 15.1858 9.52531 14.901V14.4148C9.10341 14.3173 8.71288 14.1151 8.38978 13.8268C8.06667 13.5385 7.82141 13.1735 7.67664 12.7654C7.58164 12.4968 7.59723 12.2014 7.71999 11.9443C7.84275 11.6872 8.06262 11.4894 8.33123 11.3944C8.59985 11.2993 8.8952 11.3149 9.15232 11.4377C9.40944 11.5605 9.60726 11.7803 9.70227 12.0489C9.73226 12.1308 9.78645 12.2016 9.85765 12.252C9.92885 12.3023 10.0137 12.3298 10.1009 12.3307H11.0991C11.202 12.3282 11.3005 12.2883 11.3762 12.2186C11.4519 12.1488 11.4997 12.0539 11.5106 11.9515C11.5215 11.8492 11.4949 11.7463 11.4356 11.6621C11.3763 11.578 11.2885 11.5182 11.1884 11.494L9.42566 11.1074C8.87964 10.9884 8.39193 10.6834 8.04597 10.2445C7.7 9.80564 7.51728 9.26019 7.52905 8.70147C7.54082 8.14276 7.74636 7.60549 8.1105 7.18157C8.47464 6.75766 8.97476 6.47344 9.52531 6.37753V5.92052C9.52531 5.32606 10.0064 4.84671 10.5991 4.84671ZM15.8324 16.9816V26.8606H27V25.1425C27 24.2312 26.638 23.3572 25.9936 22.7128C25.3492 22.0684 24.4752 21.7063 23.5638 21.7063H20.1276V16.9816C20.1276 16.412 19.9014 15.8657 19.4986 15.463C19.0959 15.0602 18.5496 14.834 17.98 14.834C17.4104 14.834 16.8642 15.0602 16.4614 15.463C16.0587 15.8657 15.8324 16.412 15.8324 16.9816Z" fill="#FCFCFC"/>
</svg>
