<svg width="29" height="29" viewBox="0 0 29 29" fill="none" xmlns="http://www.w3.org/2000/svg">
<path d="M9.66667 5.91211C8.19583 5.91211 7 7.06523 7 8.48354V17.4835C7 18.9018 8.19583 20.055 9.66667 20.055H24.3333C25.8042 20.055 27 18.9018 27 17.4835V8.48354C27 7.06523 25.8042 5.91211 24.3333 5.91211H9.66667ZM17 9.76925C18.8417 9.76925 20.3333 11.2076 20.3333 12.9835C20.3333 14.7594 18.8417 16.1978 17 16.1978C15.1583 16.1978 13.6667 14.7594 13.6667 12.9835C13.6667 11.2076 15.1583 9.76925 17 9.76925ZM9.66667 10.7335V8.80497C9.66667 8.62818 9.81667 8.48354 10 8.48354H12C12.1833 8.48354 12.3375 8.62818 12.3125 8.80497C12.1625 9.97015 11.2042 10.8902 10 11.0349C9.81667 11.055 9.66667 10.9103 9.66667 10.7335ZM9.66667 15.2335C9.66667 15.0568 9.81667 14.9081 10 14.9322C11.2083 15.0768 12.1625 16.0009 12.3125 17.1621C12.3333 17.3389 12.1833 17.4835 12 17.4835H10C9.81667 17.4835 9.66667 17.3389 9.66667 17.1621V15.2335ZM24 11.0349C22.7917 10.8902 21.8375 9.96613 21.6875 8.80497C21.6667 8.62818 21.8167 8.48354 22 8.48354H24C24.1833 8.48354 24.3333 8.62818 24.3333 8.80497V10.7335C24.3333 10.9103 24.1833 11.059 24 11.0349ZM24.3333 15.2335V17.1621C24.3333 17.3389 24.1833 17.4835 24 17.4835H22C21.8167 17.4835 21.6625 17.3389 21.6875 17.1621C21.8375 15.9969 22.7958 15.0768 24 14.9322C24.1833 14.9121 24.3333 15.0568 24.3333 15.2335ZM5 10.7335C5 10.1992 4.55417 9.76925 4 9.76925C3.44583 9.76925 3 10.1992 3 10.7335V21.3407C3 22.759 4.19583 23.9121 5.66667 23.9121H22C22.5542 23.9121 23 23.4822 23 22.9478C23 22.4134 22.5542 21.9835 22 21.9835H5.66667C5.3 21.9835 5 21.6943 5 21.3407V10.7335Z" fill="#FCFCFC"/>
</svg>
