<svg width="29" height="29" viewBox="0 0 29 29" fill="none" xmlns="http://www.w3.org/2000/svg">
<path d="M5.24431 2.3131C5.48633 2.07109 5.8628 2.03523 6.14963 2.22347L11.4785 5.77304C11.8774 6.03746 12.1149 6.48564 12.1149 6.96519V9.18815L16.1843 13.2576C17.6768 12.5853 19.4964 12.8587 20.7199 14.0867L26.3714 19.7383C27.2095 20.5764 27.2095 21.9388 26.3714 22.7814L23.6779 25.4749C22.8398 26.313 21.4773 26.313 20.6348 25.4749L14.9832 19.8234C13.7552 18.5954 13.4818 16.7803 14.1541 15.2879L10.0846 11.2184H7.86167C7.38212 11.2184 6.93395 10.9809 6.66952 10.582L3.11995 5.25315C2.93172 4.9708 2.96757 4.58985 3.20959 4.34783L5.24431 2.3131ZM11.7429 15.9153C11.4605 17.5691 11.846 19.317 12.9171 20.7198L8.66391 24.9775C7.40453 26.2368 5.36084 26.2368 4.10146 24.9775C2.84208 23.7181 2.84208 21.6744 4.10146 20.415L10.1698 14.3422L11.7474 15.9153H11.7429ZM19.2857 2.61338C20.1866 2.61338 21.0516 2.77921 21.8448 3.08397C22.293 3.25428 22.3737 3.82346 22.0375 4.16408L19.4964 6.70525C19.3619 6.8397 19.2857 7.02345 19.2857 7.21169V9.06715C19.2857 9.46154 19.6084 9.78423 20.0028 9.78423H21.8583C22.0465 9.78423 22.2303 9.70804 22.3647 9.57359L24.9059 7.03242C25.2465 6.69628 25.8157 6.77696 25.986 7.22513C26.2908 8.01841 26.4566 8.88339 26.4566 9.78423C26.4566 11.7204 25.6857 13.4727 24.4398 14.7635L22.2392 12.5629C20.7558 11.0839 18.721 10.5148 16.8118 10.8419L14.2661 8.29628V6.96519L14.2572 6.7411C14.2213 6.18536 14.06 5.65203 13.7866 5.17696C15.1042 3.60834 17.0762 2.61338 19.2857 2.6089V2.61338Z" fill="#FCFCFC"/>
</svg>
