<svg width="24" height="24" viewBox="0 0 24 24" fill="none" xmlns="http://www.w3.org/2000/svg">
<g clip-path="url(#clip0_290_2021)">
<path d="M19.2266 5.44126C18.8888 5.11079 18.8888 4.57642 19.2266 4.24946C19.5644 3.92251 20.1106 3.919 20.4448 4.24946L22.7448 6.49946C22.9066 6.65767 22.9964 6.87212 22.9964 7.09712C22.9964 7.32212 22.9066 7.53657 22.7448 7.69478L20.4448 9.94478C20.107 10.2752 19.5608 10.2752 19.2266 9.94478C18.8923 9.61431 18.8888 9.07993 19.2266 8.75298L20.0531 7.94439L13.8 7.93736C13.322 7.93736 12.9375 7.56118 12.9375 7.09361C12.9375 6.62603 13.322 6.24986 13.8 6.24986H20.0567L19.2266 5.44126ZM3.77344 17.2538L2.94687 18.0624H9.2C9.67797 18.0624 10.0625 18.4385 10.0625 18.9061C10.0625 19.3737 9.67797 19.7499 9.2 19.7499H2.94328L3.76984 20.5584C4.10766 20.8889 4.10766 21.4233 3.76984 21.7502C3.43203 22.0772 2.88578 22.0807 2.55156 21.7502L0.251563 19.5038C0.0898438 19.3456 0 19.1311 0 18.9061C0 18.6811 0.0898438 18.4667 0.251563 18.3084L2.55156 16.0584C2.88937 15.728 3.43563 15.728 3.76984 16.0584C4.10406 16.3889 4.10766 16.9233 3.76984 17.2502L3.77344 17.2538ZM3.45 6.24986H12.1433C12.0103 6.50298 11.9312 6.78775 11.9312 7.09361C11.9312 8.10259 12.7686 8.92173 13.8 8.92173H18.0191C17.8753 9.51939 18.0406 10.1698 18.515 10.6374C19.2445 11.351 20.4269 11.351 21.1564 10.6374L21.85 9.95884V17.4999C21.85 18.7409 20.8186 19.7499 19.55 19.7499H10.8567C10.9897 19.4967 11.0687 19.212 11.0687 18.9061C11.0687 17.8971 10.2314 17.078 9.2 17.078H4.98094C5.12469 16.4803 4.95937 15.8299 4.485 15.3624C3.75547 14.6487 2.57312 14.6487 1.84359 15.3624L1.15 16.0409V8.49986C1.15 7.25884 2.18141 6.24986 3.45 6.24986ZM5.75 8.49986H3.45V10.7499C4.71859 10.7499 5.75 9.74087 5.75 8.49986ZM19.55 15.2499C18.2814 15.2499 17.25 16.2588 17.25 17.4999H19.55V15.2499ZM11.5 16.3749C12.415 16.3749 13.2925 16.0193 13.9395 15.3863C14.5865 14.7534 14.95 13.895 14.95 12.9999C14.95 12.1047 14.5865 11.2463 13.9395 10.6134C13.2925 9.98043 12.415 9.62486 11.5 9.62486C10.585 9.62486 9.70748 9.98043 9.06048 10.6134C8.41348 11.2463 8.05 12.1047 8.05 12.9999C8.05 13.895 8.41348 14.7534 9.06048 15.3863C9.70748 16.0193 10.585 16.3749 11.5 16.3749Z" fill="#03624C"/>
</g>
<defs>
<clipPath id="clip0_290_2021">
<rect width="23" height="18" fill="white" transform="translate(0 4)"/>
</clipPath>
</defs>
</svg>
