<svg width="24" height="24" viewBox="0 0 24 24" fill="none" xmlns="http://www.w3.org/2000/svg">
<path d="M11.4362 8.63222L9.8854 10.0419C10.0904 10.7528 10.3768 11.4369 10.7386 12.0804C11.1161 12.7192 11.5709 13.3076 12.0925 13.832L14.1009 13.2051C15.2261 12.8536 16.4543 13.2146 17.2026 14.117L18.3464 15.4963C18.8096 16.0499 19.0418 16.7646 18.9938 17.4887C18.9459 18.2128 18.6215 18.8896 18.0895 19.3757C16.2237 21.1007 13.3508 21.6839 11.1999 19.9722C9.3087 18.4652 7.70908 16.6165 6.48185 14.5197C5.25151 12.4333 4.42776 10.127 4.0553 7.72601C3.64275 5.02447 5.59487 2.86249 8.02892 2.12536C9.48035 1.6846 11.0293 2.44073 11.5619 3.85039L12.1901 5.51273C12.6026 6.60702 12.3063 7.8419 11.4362 8.63222Z" fill="#03624C"/>
</svg>
