<svg width="24" height="24" viewBox="0 0 24 24" fill="none" xmlns="http://www.w3.org/2000/svg">
<g clip-path="url(#clip0_191_293)">
<path d="M10.802 22.5002H5.198L4.41 18.9562C3.09 18.3702 1.444 17.3532 0.295 16.2102L0 15.9162V8.50124H1.934L2.887 6.91123L1.639 3.79123L2.773 3.52623C3.887 3.26823 5.343 3.33323 6.767 4.11823L6.787 4.10723C7.02189 3.96701 7.25926 3.83099 7.499 3.69923C7.98613 3.42439 8.48824 3.177 9.003 2.95823C9.46 2.77323 9.895 2.61823 10.317 2.49023C9.75891 4.11009 9.86295 5.88478 10.6065 7.42834C11.35 8.9719 12.6729 10.1595 14.2874 10.7328C15.9019 11.3061 17.6775 11.2188 19.228 10.4899C20.7785 9.76092 21.9785 8.44929 22.567 6.84023L22.66 7.00023C25.125 11.2682 24.085 16.5962 20.434 19.6572L19.802 22.5012H14.198L13.753 20.5012H11.247L10.802 22.5002ZM4.5 11.5002H6.504V9.49623H4.5V11.5002Z" fill="#03624C"/>
<path d="M16.5 0C17.6935 0 18.8381 0.474106 19.682 1.31802C20.5259 2.16193 21 3.30653 21 4.5C21 5.69347 20.5259 6.83807 19.682 7.68198C18.8381 8.52589 17.6935 9 16.5 9C15.3065 9 14.1619 8.52589 13.318 7.68198C12.4741 6.83807 12 5.69347 12 4.5C12 3.30653 12.4741 2.16193 13.318 1.31802C14.1619 0.474106 15.3065 0 16.5 0Z" fill="#03624C"/>
</g>
<defs>
<clipPath id="clip0_191_293">
<rect width="24" height="24" fill="white"/>
</clipPath>
</defs>
</svg>
