<svg width="16" height="16" viewBox="0 0 16 16" fill="none" xmlns="http://www.w3.org/2000/svg">
<path d="M14.1095 3.73421L11.9491 12.376C11.6395 13.6077 10.5856 14.161 9.66348 14.161C9.65689 14.161 9.65033 14.161 9.65033 14.161C8.72161 14.1544 7.66115 13.5879 7.37133 12.343L6.80489 9.93896L10.3485 6.39525C10.6054 6.13837 10.6054 5.71688 10.3485 5.46C10.0916 5.20312 9.67006 5.20312 9.41318 5.46L5.86955 9.00355L3.46545 8.43718C2.22057 8.14737 1.65411 7.08695 1.64752 6.16482C1.64093 5.2361 2.19423 4.16906 3.43252 3.85948L12.0742 1.69904C12.6473 1.55413 13.2466 1.71874 13.6682 2.14029C14.0897 2.56184 14.2544 3.16117 14.1095 3.73421Z" fill="white"/>
</svg>
