<svg width="24" height="24" viewBox="0 0 24 24" fill="none" xmlns="http://www.w3.org/2000/svg">
<path d="M12.9 10.9V2C15.2833 2.25 17.296 3.2 18.938 4.85C20.58 6.5 21.534 8.51667 21.8 10.9H12.9ZM10.925 21.775C8.39167 21.525 6.27067 20.4583 4.562 18.575C2.85333 16.6917 1.99933 14.4667 2 11.9C2 9.31667 2.85433 7.08333 4.563 5.2C6.27167 3.31667 8.39233 2.25 10.925 2V21.775ZM12.9 21.775V12.875H21.8C21.5667 15.2583 20.6207 17.2793 18.962 18.938C17.3033 20.5967 15.2827 21.5423 12.9 21.775Z" fill="#03624C"/>
</svg>
