<svg width="48" height="48" viewBox="0 0 48 48" fill="none" xmlns="http://www.w3.org/2000/svg">
<path d="M0 8C0 3.58172 3.58172 0 8 0H40C44.4183 0 48 3.58172 48 8V40C48 44.4183 44.4183 48 40 48H8C3.58172 48 0 44.4183 0 40V8Z" fill="#FEE4E2"/>
<path d="M23.9998 28.875C24.4326 28.8652 24.863 28.942 25.2657 29.1008C25.6684 29.2597 26.0353 29.4974 26.3449 29.8C26.6545 30.1026 26.9005 30.4639 27.0685 30.8629C27.2365 31.2619 27.3231 31.6904 27.3232 32.1234C27.3234 32.5563 27.237 32.9848 27.0692 33.3839C26.9014 33.783 26.6555 34.1445 26.3461 34.4472C26.0366 34.75 25.6698 34.9879 25.2672 35.1469C24.8646 35.306 24.4342 35.3829 24.0014 35.3734C23.1522 35.3546 22.3442 35.0041 21.7502 34.397C21.1562 33.7899 20.8235 32.9743 20.8232 32.125C20.823 31.2756 21.1553 30.4599 21.749 29.8525C22.3427 29.2451 23.1506 28.8942 23.9998 28.875ZM23.9998 12.625C24.6462 12.625 25.2662 12.8818 25.7233 13.3389C26.1805 13.796 26.4373 14.416 26.4373 15.0625V24.8125C26.4373 25.459 26.1805 26.079 25.7233 26.5361C25.2662 26.9932 24.6462 27.25 23.9998 27.25C23.3533 27.25 22.7333 26.9932 22.2762 26.5361C21.8191 26.079 21.5623 25.459 21.5623 24.8125V15.0625C21.5623 14.416 21.8191 13.796 22.2762 13.3389C22.7333 12.8818 23.3533 12.625 23.9998 12.625Z" fill="#D92D20"/>
</svg>
