<svg width="48" height="48" viewBox="0 0 48 48" fill="none" xmlns="http://www.w3.org/2000/svg">
<path d="M0 8C0 3.58172 3.58172 0 8 0H40C44.4183 0 48 3.58172 48 8V40C48 44.4183 44.4183 48 40 48H8C3.58172 48 0 44.4183 0 40V8Z" fill="#03624C"/>
<path d="M23.5 14.375C21.7434 14.3744 20.0169 14.8308 18.49 15.6994C16.9632 16.568 15.6886 17.8189 14.7915 19.3292C13.8944 20.8394 13.4057 22.5571 13.3733 24.3134C13.3409 26.0697 13.766 27.8042 14.6069 29.3465L13.4087 33.5484C13.3666 33.6959 13.3655 33.8522 13.4055 34.0003C13.4455 34.1484 13.5252 34.2829 13.6359 34.3891C13.7467 34.4953 13.8843 34.5693 14.034 34.6032C14.1836 34.637 14.3397 34.6294 14.4854 34.5811L18.4307 33.2666C19.7754 34.0436 21.2809 34.5009 22.8306 34.6031C24.3803 34.7052 25.9327 34.4495 27.3678 33.8557C28.8029 33.2619 30.0821 32.3459 31.1065 31.1787C32.131 30.0114 32.8732 28.6241 33.2757 27.1241C33.6782 25.624 33.7302 24.0516 33.4278 22.5282C33.1253 21.0049 32.4765 19.5715 31.5314 18.3391C30.5864 17.1066 29.3705 16.1081 27.9779 15.4207C26.5852 14.7333 25.0531 14.3755 23.5 14.375ZM20.125 22.8125C20.125 22.5887 20.2139 22.3741 20.3721 22.2159C20.5304 22.0576 20.745 21.9688 20.9687 21.9688H26.0312C26.255 21.9688 26.4696 22.0576 26.6279 22.2159C26.7861 22.3741 26.875 22.5887 26.875 22.8125C26.875 23.0363 26.7861 23.2509 26.6279 23.4091C26.4696 23.5674 26.255 23.6563 26.0312 23.6563H20.9687C20.745 23.6563 20.5304 23.5674 20.3721 23.4091C20.2139 23.2509 20.125 23.0363 20.125 22.8125ZM20.9687 25.3438H24.3437C24.5675 25.3438 24.7821 25.4326 24.9404 25.5909C25.0986 25.7491 25.1875 25.9637 25.1875 26.1875C25.1875 26.4113 25.0986 26.6259 24.9404 26.7841C24.7821 26.9424 24.5675 27.0313 24.3437 27.0313H20.9687C20.745 27.0313 20.5304 26.9424 20.3721 26.7841C20.2139 26.6259 20.125 26.4113 20.125 26.1875C20.125 25.9637 20.2139 25.7491 20.3721 25.5909C20.5304 25.4326 20.745 25.3438 20.9687 25.3438Z" fill="#FCFCFC"/>
</svg>
